<!-- SVG placeholder for JigsawMe game -->
<svg width="200" height="200" xmlns="http://www.w3.org/2000/svg">
  <defs>
    <linearGradient id="jigsawGrad" x1="0%" y1="0%" x2="100%" y2="100%">
      <stop offset="0%" style="stop-color:#a8edea;stop-opacity:1" />
      <stop offset="100%" style="stop-color:#fed6e3;stop-opacity:1" />
    </linearGradient>
  </defs>
  <rect width="200" height="200" fill="url(#jigsawGrad)" rx="15"/>
  
  <!-- Jigsaw puzzle pieces with interlocking design -->
  <path d="M50 50 L90 50 C95 45 105 45 110 50 L150 50 L150 90 C155 95 155 105 150 110 L150 150 L110 150 C105 155 95 155 90 150 L50 150 Z" 
        fill="#ffffff" opacity="0.8" stroke="#4a90e2" stroke-width="2"/>
  
  <!-- Individual puzzle pieces -->
  <path d="M60 70 L80 70 C83 67 87 67 90 70 L90 90 L70 90 L70 80 C67 77 67 73 70 70 Z" 
        fill="#4a90e2" opacity="0.7"/>
  <path d="M110 70 L130 70 L130 90 C133 93 133 97 130 100 L110 100 Z" 
        fill="#e74c3c" opacity="0.7"/>
  <path d="M70 110 L90 110 L90 130 L70 130 C67 127 67 123 70 120 Z" 
        fill="#f39c12" opacity="0.7"/>
  
  <text x="100" y="175" font-family="Arial, sans-serif" font-size="16" font-weight="bold" fill="white" text-anchor="middle">JigsawMe</text>
</svg>